<svg xmlns="http://www.w3.org/2000/svg" width="71.024" height="45.079" viewBox="0 0 71.024 45.079"><g transform="translate(-342.001 -7452)"><path d="M16.353,33.894A16.952,16.952,0,1,1,33.905,16.825a41.726,41.726,0,0,1-.553,7.61c-4.545,22.534-22.2,20.6-22.2,20.6S17.466,40.681,16.353,33.894Z" transform="translate(342 7452)" fill="#fdefef"/><path d="M16.353,33.894A16.952,16.952,0,1,1,33.905,16.825a41.726,41.726,0,0,1-.553,7.61c-4.545,22.534-22.2,20.6-22.2,20.6S17.466,40.681,16.353,33.894Z" transform="translate(379.104 7452)" fill="#fdefef"/></g></svg>